<svg xmlns="http://www.w3.org/2000/svg" viewBox="0 0 480 360" width="480" height="360" font-family="'Noto Sans SC','PingFang SC','Noto Sans CJK SC',sans-serif">
  <defs>
    <filter id="p0201-1-pencil" x="-5%" y="-5%" width="110%" height="110%">
      <feTurbulence type="fractalNoise" baseFrequency="0.045" numOctaves="2" seed="3" result="n"/>
      <feDisplacementMap in="SourceGraphic" in2="n" scale="1.4" xChannelSelector="R" yChannelSelector="G"/>
    </filter>
    <pattern id="p0201-1-shade" width="5" height="5" patternUnits="userSpaceOnUse" patternTransform="rotate(38)">
      <line x1="0" y1="0" x2="0" y2="5" stroke="#6b6b6b" stroke-width="0.7" stroke-opacity="0.8"/>
    </pattern>
    <pattern id="p0201-1-shade2" width="4" height="4" patternUnits="userSpaceOnUse" patternTransform="rotate(38)">
      <line x1="0" y1="0" x2="0" y2="4" stroke="#4a4a4a" stroke-width="0.8"/>
      <line x1="0" y1="2" x2="4" y2="2" stroke="#4a4a4a" stroke-width="0.5" stroke-opacity="0.6"/>
    </pattern>
  </defs>
  <path d="M110 320 L400 44" stroke="#8a8a8a" stroke-width="0.8" stroke-dasharray="4 4" fill="none"/>
  <g filter="url(#p0201-1-pencil)" stroke="#3d3d3d" fill="none" stroke-linecap="round" stroke-linejoin="round" stroke-opacity="0.92">
    <!-- 1 吊架 -->
    <path d="M70 300 l50 -16 l40 8 l-50 16 Z" stroke-width="1.5"/>
    <path d="M70 300 v8 l40 8 v-8 M110 316 l50 -16 v-8" stroke-width="1.4"/>
    <path d="M72 302 v5 l38 8 v-5 Z" fill="url(#p0201-1-shade)" stroke="none"/>
    <circle cx="90" cy="294" r="3" stroke-width="1"/><circle cx="135" cy="290" r="3" stroke-width="1"/>
    <path d="M90 291 v-16 M135 287 v-16 M86 275 h8 M131 271 h8" stroke-width="1.2"/>
    <path d="M100 318 v10 h28 v-10" stroke-width="1.2"/>
    <!-- 2 滑轨 -->
    <path d="M118 262 l130 -52 l12 6 l-130 52 Z" stroke-width="1.5"/>
    <path d="M118 262 v10 l12 6 v-10 M130 278 l130 -52 v-10" stroke-width="1.4"/>
    <path d="M120 268 l130 -52" stroke-width="0.7"/>
    <path d="M118 272 l12 6 l130 -52 v-4 l-130 52 l-12 -6 Z" fill="url(#p0201-1-shade)" stroke="none"/>
    <path d="M128 259 l116 -46" stroke-width="0.9" stroke-dasharray="1.5 1.5"/>
    <path d="M116 258 l4 -2 v8 l-4 2 Z M246 206 l4 -2 v8 l-4 2 Z" stroke-width="0.9"/>
    <!-- 3 滑车 + 电机 -->
    <rect x="220" y="172" width="40" height="26" rx="3" stroke-width="1.5"/>
    <rect x="222" y="174" width="36" height="22" rx="2" stroke-width="0.6"/>
    <rect x="222" y="190" width="36" height="6" fill="url(#p0201-1-shade)" stroke="none"/>
    <circle cx="240" cy="185" r="6" stroke-width="1.2"/><circle cx="240" cy="185" r="2" stroke-width="1"/>
    <circle cx="226" cy="201" r="4.5" stroke-width="1.1"/><circle cx="254" cy="201" r="4.5" stroke-width="1.1"/>
    <circle cx="226" cy="201" r="1.3" stroke-width="0.8"/><circle cx="254" cy="201" r="1.3" stroke-width="0.8"/>
    <path d="M260 178 h16 a4 7 0 0 1 0 14 h-16" stroke-width="1.3"/><ellipse cx="276" cy="185" rx="4" ry="7" stroke-width="0.9"/>
    <path d="M262 180 h12 M262 190 h12" stroke-width="0.5"/>
    <!-- 4 拖链 -->
    <path d="M280 150 q18 -28 44 -26" stroke-width="1.4"/>
    <path d="M284 157 q18 -28 44 -26" stroke-width="1.4"/>
    <path d="M280 150 l4 7 M324 124 l4 7" stroke-width="1.2"/>
    <path d="M286 142 l4 6 M293 135 l4 6 M301 130 l4 6 M310 127 l4 6 M318 125 l4 6" stroke-width="0.8"/>
    <path d="M283 152 q18 -28 44 -26" stroke-width="0.6" stroke-dasharray="2 2"/>
    <!-- 5 云台 -->
    <rect x="336" y="70" width="28" height="7" rx="2" stroke-width="1.4"/>
    <ellipse cx="350" cy="82" rx="14" ry="4.5" stroke-width="1.3"/>
    <path d="M336 82 v6 a14 4.5 0 0 0 28 0 v-6" stroke-width="1.2"/>
    <path d="M338 85 a12 4 0 0 0 24 0 v3 a12 4 0 0 1 -24 0 Z" fill="url(#p0201-1-shade)" stroke="none"/>
    <path d="M338 92 v24 h4 v-14 h16 v14 h4 v-24" stroke-width="1.4"/>
    <circle cx="364" cy="108" r="5" stroke-width="1.2"/><circle cx="364" cy="108" r="1.5" stroke-width="0.8"/>
    <path d="M342 108 h16" stroke-width="0.8"/>
    <!-- 6 快装板 -->
    <path d="M378 52 l30 -10 l14 6 l-30 10 Z" stroke-width="1.5"/>
    <path d="M378 52 v5 l14 6 v-5 M392 63 l30 -10 v-5" stroke-width="1.2"/>
    <path d="M390 50 l14 -5 M392 53 l14 -5" stroke-width="0.7"/>
    <circle cx="400" cy="46" r="2.5" stroke-width="1"/><path d="M400 43 v-8 M397 35 h6" stroke-width="1"/>
    <path d="M420 46 l8 -4" stroke-width="1.6"/>
  </g>
  <g stroke="#5a5a5a" stroke-width="0.8" fill="none" stroke-dasharray="2 3">
    <path d="M160 302 H190"/><path d="M250 236 H280"/><path d="M262 198 H290"/><path d="M330 145 H350"/><path d="M372 100 H390"/><path d="M424 58 H430"/>
  </g>
  <g font-size="10" fill="#2a2a2a" text-anchor="middle">
    <g stroke="#3d3d3d" stroke-width="1" fill="#f7f4ee">
      <circle cx="200" cy="302" r="8"/><circle cx="290" cy="236" r="8"/><circle cx="300" cy="198" r="8"/><circle cx="360" cy="145" r="8"/><circle cx="400" cy="100" r="8"/><circle cx="440" cy="58" r="8"/>
    </g>
    <text x="200" y="305.5">1</text><text x="290" y="239.5">2</text><text x="300" y="201.5">3</text><text x="360" y="148.5">4</text><text x="400" y="103.5">5</text><text x="440" y="61.5">6</text>
  </g>
  <g font-size="10.5" fill="#2a2a2a">
    <text x="16" y="34" font-weight="700" font-size="12">电动滑轨云台 · 爆炸图</text>
    <text x="16" y="52">1 天花板吊架（膨胀螺栓）</text>
    <text x="16" y="68">2 3m 铝合金 V 型滑轨 + 同步带</text>
    <text x="16" y="84">3 滑车 + NEMA17 步进电机</text>
    <text x="16" y="100">4 拖链（电源 / 信号线）</text>
    <text x="16" y="116">5 双轴云台（水平 / 俯仰）</text>
    <text x="16" y="132">6 快装板（挂灯）</text>
  </g>
  <text x="464" y="350" text-anchor="end" font-family="'Long Cang','Kaiti SC',cursive" font-size="11" fill="#5a5a5a">0201-1</text>
</svg>
