<svg xmlns="http://www.w3.org/2000/svg" viewBox="0 0 360 480" width="360" height="480" font-family="'Noto Sans SC','PingFang SC','Noto Sans CJK SC',sans-serif">
  <defs>
    <filter id="p0301-4p-pencil" x="-5%" y="-5%" width="110%" height="110%">
      <feTurbulence type="fractalNoise" baseFrequency="0.045" numOctaves="2" seed="10" result="n"/>
      <feDisplacementMap in="SourceGraphic" in2="n" scale="1.4" xChannelSelector="R" yChannelSelector="G"/>
    </filter>
    <pattern id="p0301-4p-shade" width="5" height="5" patternUnits="userSpaceOnUse" patternTransform="rotate(38)">
      <line x1="0" y1="0" x2="0" y2="5" stroke="#6b6b6b" stroke-width="0.7" stroke-opacity="0.8"/>
    </pattern>
    <pattern id="p0301-4p-dots" width="6" height="6" patternUnits="userSpaceOnUse">
      <circle cx="3" cy="3" r="0.7" fill="#7a7a7a"/>
    </pattern>
  </defs>
  <g filter="url(#p0301-4p-pencil)" stroke="#3d3d3d" fill="none" stroke-linecap="round" stroke-linejoin="round">
    <rect x="14" y="14" width="332" height="452" rx="4" stroke-width="1.6"/>
    <rect x="19" y="19" width="322" height="442" rx="3" stroke-width="0.7"/>
    <path d="M30 44 H330" stroke-width="0.8"/>
    <!-- 左上：图纸（G 代码路径） -->
    <path d="M40 120 h44 l12 12 v46 h-56 Z" stroke-width="1.5"/>
    <path d="M84 120 v12 h12" stroke-width="1"/>
    <path d="M50 146 h24 M50 154 h34 M50 162 h18" stroke-width="0.8"/>
    <path d="M52 138 q8 -8 16 0 t16 0" stroke-width="1" stroke-dasharray="2 2"/>
    <!-- 中：木屋 + 人在木屋问号 -->
    <path d="M140 176 v-34 l40 -30 l40 30 v34 Z" stroke-width="1.6"/>
    <path d="M134 144 l46 -34 l46 34" stroke-width="1.2"/>
    <path d="M170 176 v-20 h12 v20" stroke-width="1.1"/>
    <path d="M142 160 h26 v14 h-26 Z" fill="url(#p0301-4p-shade)" stroke="none"/>
    <circle cx="200" cy="154" r="5" stroke-width="1.2"/>
    <path d="M200 159 v10 M194 164 h12 M197 169 l-3 6 M203 169 l3 6" stroke-width="1.1"/>
    <path d="M204 118 q8 -8 12 0 q2 4 -4 8 v4 M212 134 v2" stroke-width="1.3"/>
    <!-- 右：CNC 主轴 + 木牌 -->
    <path d="M276 128 a10 4 0 0 1 20 0 v24 a10 4 0 0 1 -20 0 Z" stroke-width="1.5"/>
    <ellipse cx="286" cy="128" rx="10" ry="4" stroke-width="1"/>
    <path d="M283 156 h6 v6 h-6 Z M286 162 v10" stroke-width="1.2"/>
    <path d="M278 140 a10 4 0 0 0 16 1 v6 a10 4 0 0 1 -16 -1 Z" fill="url(#p0301-4p-shade)" stroke="none"/>
    <path d="M256 180 h60 v14 h-60 Z" stroke-width="1.4"/>
    <path d="M264 187 h12 M282 187 h8 M296 187 h12" stroke-width="0.9"/>
    <path d="M286 172 q3 3 0 6" stroke-width="0.8"/>
    <path d="M300 168 l4 -2 M304 174 l4 0 M300 178 l4 2" stroke-width="0.7"/>
    <!-- 相机（右下） -->
    <rect x="290" y="206" width="26" height="16" rx="3" stroke-width="1.2"/>
    <circle cx="303" cy="214" r="4" stroke-width="1"/>
    <path d="M296 206 l3 -4 h8 l3 4" stroke-width="1"/>
    <!-- 箭头 -->
    <path d="M98 150 Q118 150 134 154" stroke-width="1" stroke-dasharray="3 3"/>
    <path d="M128 150 l7 4 l-7 3" stroke-width="1"/>
    <path d="M222 150 Q240 150 254 150" stroke-width="1" stroke-dasharray="3 3"/>
    <path d="M248 147 l7 3 l-7 3" stroke-width="1"/>
    <path d="M300 196 q4 4 4 8" stroke-width="0.9" stroke-dasharray="2 2"/>
    <!-- 地平线 -->
    <path d="M40 270 Q180 262 320 270" stroke-width="1.2"/>
    <path d="M44 274 q40 -3 80 0 M236 274 q40 -3 80 0" stroke-width="0.6"/>
    <circle cx="48" cy="332" r="7" stroke-width="1.2"/><path d="M45 332 l2 2 l4 -5" stroke-width="1.2"/>
    <circle cx="48" cy="362" r="7" stroke-width="1.2"/><path d="M45 362 l2 2 l4 -5" stroke-width="1.2"/>
    <circle cx="48" cy="392" r="7" stroke-width="1.2"/><path d="M45 392 l2 2 l4 -5" stroke-width="1.2"/>
    <path d="M30 420 H330" stroke-width="0.8"/>
  </g>
  <text x="30" y="38" font-size="9" fill="#666" letter-spacing="2">SURVIVEOS · LOGIC PRODUCT</text>
  <text x="330" y="38" font-size="9" fill="#666" text-anchor="end">0301 · L4</text>
  <text x="180" y="72" text-anchor="middle" font-family="'Noto Serif SC','Songti SC',serif" font-weight="900" font-size="22" fill="#2a2a2a">CNC 静音排程</text>
  <text x="180" y="90" text-anchor="middle" font-family="'Long Cang','Kaiti SC',cursive" font-size="13" fill="#b5372b">楼下在休息，机器等一等；刻完自己拍张照</text>
  <text x="62" y="196" text-anchor="middle" font-size="8.5" fill="#666">G 代码</text>
  <text x="180" y="196" text-anchor="middle" font-size="8.5" fill="#666">楼下有客？</text>
  <text x="286" y="236" text-anchor="middle" font-size="8.5" fill="#666">成品照</text>
  <text x="180" y="300" text-anchor="middle" font-size="9.5" fill="#666">图纸出 G 代码 → 查木屋里人在不在休息 → Candle 探高开雕 → 完成拍照归档</text>
  <g font-size="11" fill="#2a2a2a">
    <text x="64" y="336">木屋门磁 + 毫米波说有人，任务先排队不吵客</text>
    <text x="64" y="366">探针先扫一遍高度图，歪木牌也刻得深浅一致</text>
    <text x="64" y="396">限位、断刀立刻急停推送；完成自动拍成品归档</text>
  </g>
  <text x="30" y="440" font-size="9" fill="#666">跑在：Candle + HomeAssistant · 数据出口：成品照 + G 代码存 NAS</text>
  <text x="30" y="454" font-size="9" fill="#666">参考实现：Denvi/Candle · home-assistant/core</text>
  <g transform="rotate(-8 296 108)">
    <rect x="266" y="98" width="60" height="20" rx="3" fill="none" stroke="#b5372b" stroke-width="1.4"/>
    <text x="296" y="112" text-anchor="middle" font-size="9.5" fill="#b5372b" font-weight="700" letter-spacing="1">设想·逻辑</text>
  </g>
</svg>
