<svg xmlns="http://www.w3.org/2000/svg" viewBox="0 0 480 360" width="480" height="360" font-family="'Noto Sans SC','PingFang SC','Noto Sans CJK SC',sans-serif">
  <defs>
    <filter id="p0307-3-pencil" x="-5%" y="-5%" width="110%" height="110%"><feTurbulence type="fractalNoise" baseFrequency="0.045" numOctaves="2" seed="139" result="n"/><feDisplacementMap in="SourceGraphic" in2="n" scale="1.4" xChannelSelector="R" yChannelSelector="G"/></filter>
    <pattern id="p0307-3-shade" width="5" height="5" patternUnits="userSpaceOnUse" patternTransform="rotate(38)"><line x1="0" y1="0" x2="0" y2="5" stroke="#6b6b6b" stroke-width="0.7" stroke-opacity="0.8"/></pattern>
    <marker id="p0307-3-arrow" viewBox="0 0 10 10" refX="9" refY="5" markerWidth="8" markerHeight="8" orient="auto-start-reverse"><path d="M1 1 L9 5 L1 9" fill="none" stroke="#3d3d3d" stroke-width="1.3" stroke-linecap="round" stroke-linejoin="round"/></marker>
  </defs>
  <text x="16" y="30" font-weight="700" font-size="12" fill="#2a2a2a">三轴控制与限位安全 · 流程图</text>
  <g filter="url(#p0307-3-pencil)" stroke="#3d3d3d" fill="none" stroke-linecap="round" stroke-linejoin="round" stroke-width="1.4" stroke-opacity="0.92">
<rect x="30" y="52" width="110" height="34" rx="17.0"/>
<path d="M186 56 a44.0 6 0 0 1 88 0 v32 a44.0 6 0 0 1 -88 0 Z"/><ellipse cx="230.0" cy="56" rx="44.0" ry="6"/>
<rect x="30" y="130" width="110" height="40" rx="6"/><rect x="32" y="132" width="106" height="36" rx="5" stroke-width="0.5"/><path d="M34 172 h106 v3 h-106 Z" fill="url(#p0307-3-shade)" stroke="none"/>
<path d="M230.0 128 l58.0 24.0 l-58.0 24.0 l-58.0 -24.0 Z"/><path d="M232.0 176 l56.0 -24.0 l4 2 l-58.0 26.0 Z" fill="url(#p0307-3-shade)" stroke="none"/>
<rect x="330" y="130" width="120" height="40" rx="6"/><rect x="332" y="132" width="116" height="36" rx="5" stroke-width="0.5"/><path d="M334 172 h116 v3 h-116 Z" fill="url(#p0307-3-shade)" stroke="none"/>
<rect x="30" y="230" width="110" height="40" rx="6"/><rect x="32" y="232" width="106" height="36" rx="5" stroke-width="0.5"/><path d="M34 272 h106 v3 h-106 Z" fill="url(#p0307-3-shade)" stroke="none"/>
<rect x="175" y="230" width="110" height="40" rx="6"/><rect x="177" y="232" width="106" height="36" rx="5" stroke-width="0.5"/><path d="M179 272 h106 v3 h-106 Z" fill="url(#p0307-3-shade)" stroke="none"/>
<rect x="330" y="230" width="120" height="40" rx="6"/><rect x="332" y="232" width="116" height="36" rx="5" stroke-width="0.5"/><path d="M334 272 h116 v3 h-116 Z" fill="url(#p0307-3-shade)" stroke="none"/>
<rect x="155" y="312" width="170" height="30" rx="15.0"/>
  </g>
  <g stroke="#3d3d3d" stroke-width="1.2" fill="none" marker-end="url(#p0307-3-arrow)" stroke-linecap="round"><path d="M85 86 V128"/><path d="M186 72 Q158 72 140 72" stroke-dasharray="3 3"/><path d="M140 150 H170"/><path d="M288 152 H328"/><path d="M230 176 V228"/><path d="M390 170 V228"/><path d="M85 170 V228"/><path d="M140 250 H173"/><path d="M230 270 V310"/><path d="M330 250 H287"/><path d="M30 250 Q10 250 10 150 Q10 130 28 130" stroke-dasharray="3 3"/></g>
  <g font-size="10.5" fill="#2a2a2a" text-anchor="middle"><text x="85" y="69">cncjs 下发 G 代码</text><text x="85" y="83">机旁小主机 / 平板</text><text x="230" y="74">三轴固件</text><text x="230" y="87" font-size="8.5" fill="#666">grblHAL / FluidNC</text><text x="85" y="147">固件解析 G 代码</text><text x="85" y="161">前瞻加减速 → 脉冲</text><text x="230" y="149">安全信号正常？</text><text x="230" y="162" font-size="8.5" fill="#666">限位 门磁 探针</text><text x="390" y="147">是 → 按刀路走三轴</text><text x="390" y="161">M3 / M5 控主轴启停</text><text x="85" y="247">否 → 进给暂停</text><text x="85" y="261">抬刀并停主轴</text><text x="230" y="247">VFD 经 RS485 调速</text><text x="230" y="261">不用手动旋钮</text><text x="390" y="247">门开 / 丢步 / 过流</text><text x="390" y="261">任一触发即暂停</text><text x="240" y="331">安全逻辑走固件输入，不走网页</text><text x="305" y="146" font-size="8.5" fill="#666">是</text><text x="216" y="200" font-size="8.5" fill="#666">加工中</text><text x="70" y="200" font-size="8.5" fill="#666">否</text></g>
  <text x="464" y="350" text-anchor="end" font-family="'Long Cang','Kaiti SC',cursive" font-size="11" fill="#5a5a5a">0307-3</text>
</svg>
