<svg xmlns="http://www.w3.org/2000/svg" viewBox="0 0 480 360" width="480" height="360" font-family="'Noto Sans SC','PingFang SC','Noto Sans CJK SC',sans-serif">
  <defs>
    <filter id="p0603-1-pencil" x="-5%" y="-5%" width="110%" height="110%">
      <feTurbulence type="fractalNoise" baseFrequency="0.045" numOctaves="2" seed="3" result="n"/>
      <feDisplacementMap in="SourceGraphic" in2="n" scale="1.4" xChannelSelector="R" yChannelSelector="G"/>
    </filter>
    <pattern id="p0603-1-shade" width="5" height="5" patternUnits="userSpaceOnUse" patternTransform="rotate(38)">
      <line x1="0" y1="0" x2="0" y2="5" stroke="#6b6b6b" stroke-width="0.7" stroke-opacity="0.8"/>
    </pattern>
    <pattern id="p0603-1-shade2" width="4" height="4" patternUnits="userSpaceOnUse" patternTransform="rotate(38)">
      <line x1="0" y1="0" x2="0" y2="4" stroke="#4a4a4a" stroke-width="0.8"/>
      <line x1="0" y1="2" x2="4" y2="2" stroke="#4a4a4a" stroke-width="0.5" stroke-opacity="0.6"/>
    </pattern>
  </defs>

  <path d="M96 318 L392 40" stroke="#8a8a8a" stroke-width="0.8" stroke-dasharray="4 4" fill="none"/>
  <g filter="url(#p0603-1-pencil)" stroke="#3d3d3d" fill="none" stroke-linecap="round" stroke-linejoin="round" stroke-opacity="0.92">
    <!-- 1 碎石沟 + 慢排孔滴水 -->
    <path d="M56 302 l80 -28 l40 14 l-80 28 Z" stroke-width="1.5"/>
    <path d="M56 302 v10 l40 14 v-10 M96 316 v10 l80 -28 v-10" stroke-width="1.3"/>
    <path d="M58 304 v8 l38 13 v-8 Z" fill="url(#p0603-1-shade)" stroke="none"/>
    <path d="M98 318 l78 -27 v6 l-78 27 Z" fill="url(#p0603-1-shade2)" stroke="none"/>
    <circle cx="80" cy="300" r="2.6" stroke-width="0.8"/><circle cx="98" cy="304" r="2.2" stroke-width="0.8"/><circle cx="112" cy="294" r="2.6" stroke-width="0.8"/>
    <circle cx="126" cy="300" r="2.2" stroke-width="0.8"/><circle cx="134" cy="286" r="2.4" stroke-width="0.8"/><circle cx="150" cy="292" r="2.2" stroke-width="0.8"/><circle cx="104" cy="288" r="2" stroke-width="0.8"/>
    <path d="M110 272 q-3 5 0 7 q3 -2 0 -7 Z M110 260 q-3 5 0 7 q3 -2 0 -7 Z" stroke-width="0.9"/>
    <!-- 2 20L 弃流桶身 -->
    <ellipse cx="175" cy="220" rx="24" ry="7" stroke-width="1.5"/>
    <path d="M151 220 v44 a24 7 0 0 0 48 0 v-44" stroke-width="1.5"/>
    <path d="M153 262 a24 7 0 0 0 44 0 v4 a24 7 0 0 1 -44 0 Z" fill="url(#p0603-1-shade)" stroke="none"/>
    <path d="M186 224 v40 h10 v-40 Z" fill="url(#p0603-1-shade)" stroke="none"/>
    <path d="M151 232 a24 7 0 0 0 48 0 M151 252 a24 7 0 0 0 48 0" stroke-width="0.6"/>
    <circle cx="175" cy="269" r="1.6" stroke-width="0.9"/>
    <path d="M157 216 h-8 M197 216 h8" stroke-width="1"/>
    <!-- 3 浮球 + 溢流三通 -->
    <path d="M244 150 V202 M256 150 V202" stroke-width="1.5"/>
    <path d="M256 162 h24 M256 172 h24" stroke-width="1.5"/>
    <ellipse cx="280" cy="167" rx="2" ry="5" stroke-width="1"/>
    <ellipse cx="250" cy="150" rx="6" ry="2" stroke-width="1"/><ellipse cx="250" cy="202" rx="6" ry="2" stroke-width="1"/>
    <path d="M251 152 h5 v48 h-5 Z" fill="url(#p0603-1-shade)" stroke="none"/>
    <path d="M258 168 h22 v3 h-22 Z" fill="url(#p0603-1-shade)" stroke="none"/>
    <circle cx="250" cy="192" r="7" stroke-width="1.4"/>
    <path d="M246 188 q3 -3 6 -1" stroke-width="0.7"/>
    <path d="M243 184 h14" stroke-width="0.9"/>
    <path d="M250 214 q-3 4 0 6 q3 -2 0 -6 Z" stroke-width="0.8"/>
    <!-- 4 落水管接入弯头 -->
    <path d="M312 84 V112 q0 14 14 14 h24" stroke-width="1.5"/>
    <path d="M326 84 V108 q0 4 4 4 h20" stroke-width="1.5"/>
    <ellipse cx="319" cy="84" rx="7" ry="2.5" stroke-width="1"/>
    <ellipse cx="350" cy="119" rx="2.5" ry="7" stroke-width="1"/>
    <path d="M319 86 h7 v22 q0 4 4 4 h20 v7 h-24 q-7 0 -7 -7 Z" fill="url(#p0603-1-shade)" stroke="none"/>
    <path d="M314 94 h12 M314 100 h12" stroke-width="0.5"/>
    <!-- 5 桶盖 + 粗滤网 -->
    <ellipse cx="392" cy="56" rx="26" ry="9" stroke-width="1.5"/>
    <path d="M366 56 v5 a26 9 0 0 0 52 0 v-5" stroke-width="1.2"/>
    <path d="M368 58 a26 9 0 0 0 48 0 v4 a26 9 0 0 1 -48 0 Z" fill="url(#p0603-1-shade)" stroke="none"/>
    <path d="M374 52 l36 0 M372 56 l40 0 M376 60 l32 0 M382 48 v16 M392 47 v18 M402 48 v16" stroke-width="0.5"/>
    <path d="M388 44 h8 v4 h-8 Z" stroke-width="1"/>
  </g>
  <g stroke="#5a5a5a" stroke-width="0.8" fill="none" stroke-dasharray="2 3">
    <path d="M176 300 H216"/><path d="M150 240 H110"/><path d="M282 175 H340"/><path d="M354 120 H400"/><path d="M420 54 H445"/>
  </g>
  <g font-size="10" fill="#2a2a2a" text-anchor="middle">
    <g stroke="#3d3d3d" stroke-width="1" fill="#f7f4ee">
      <circle cx="225" cy="300" r="8"/><circle cx="100" cy="240" r="8"/><circle cx="350" cy="175" r="8"/><circle cx="410" cy="120" r="8"/><circle cx="455" cy="54" r="8"/>
    </g>
    <text x="225" y="303.5">1</text><text x="100" y="243.5">2</text><text x="350" y="178.5">3</text><text x="410" y="123.5">4</text><text x="455" y="57.5">5</text>
  </g>
  <g font-size="10.5" fill="#2a2a2a">
    <text x="16" y="34" font-weight="700" font-size="12">首雨弃流桶 · 爆炸图</text>
    <text x="16" y="52">1 碎石沟 + 桶底 2mm 慢排孔</text>
    <text x="16" y="68">2 20L 弃流桶身（铁桶）</text>
    <text x="16" y="84">3 浮球封口 + 溢流三通 → 主罐</text>
    <text x="16" y="100">4 落水管接入弯头</text>
    <text x="16" y="116">5 桶盖 + 粗滤网（拦树叶）</text>
  </g>
  <text x="464" y="350" text-anchor="end" font-family="'Long Cang','Kaiti SC',cursive" font-size="11" fill="#5a5a5a">0603-1</text>
</svg>
