<svg xmlns="http://www.w3.org/2000/svg" viewBox="0 0 480 360" width="480" height="360" font-family="'Noto Sans SC','PingFang SC','Noto Sans CJK SC',sans-serif">
  <defs>
    <filter id="p0804-1-pencil" x="-5%" y="-5%" width="110%" height="110%">
      <feTurbulence type="fractalNoise" baseFrequency="0.045" numOctaves="2" seed="99" result="n"/>
      <feDisplacementMap in="SourceGraphic" in2="n" scale="1.4" xChannelSelector="R" yChannelSelector="G"/>
    </filter>
    <pattern id="p0804-1-shade" width="5" height="5" patternUnits="userSpaceOnUse" patternTransform="rotate(38)">
      <line x1="0" y1="0" x2="0" y2="5" stroke="#6b6b6b" stroke-width="0.7" stroke-opacity="0.8"/>
    </pattern>
    <pattern id="p0804-1-shade2" width="4" height="4" patternUnits="userSpaceOnUse" patternTransform="rotate(38)">
      <line x1="0" y1="0" x2="0" y2="4" stroke="#4a4a4a" stroke-width="0.8"/>
      <line x1="0" y1="2" x2="4" y2="2" stroke="#4a4a4a" stroke-width="0.5" stroke-opacity="0.6"/>
    </pattern>
  </defs>
  <path d="M100 318 L392 40" stroke="#8a8a8a" stroke-width="0.8" stroke-dasharray="4 4" fill="none"/>
  <g filter="url(#p0804-1-pencil)" stroke="#3d3d3d" fill="none" stroke-linecap="round" stroke-linejoin="round" stroke-opacity="0.92">
<path d="M80.0 260.0 h8 v60 h-8 Z M80.0 260.0 l8 -4.8 h8 l-8 4.8 M88.0 260.0 l8 -4.8 v60 l-8 4.8" stroke-width="1.3"/><path d="M89.0 261.0 l6 -3.8 v58 l-6 3.8 Z" fill="url(#p0804-1-shade)" stroke="none"/><path d="M82.0 262.0 v56 M82.0 290.0 h4 M80.0 262.0 h4 M80.0 318.0 h4" stroke-width="0.6"/><path d="M132.0 260.0 h8 v60 h-8 Z M132.0 260.0 l8 -4.8 h8 l-8 4.8 M140.0 260.0 l8 -4.8 v60 l-8 4.8" stroke-width="1.3"/><path d="M141.0 261.0 l6 -3.8 v58 l-6 3.8 Z" fill="url(#p0804-1-shade)" stroke="none"/><path d="M134.0 262.0 v56 M134.0 290.0 h4 M132.0 262.0 h4 M132.0 318.0 h4" stroke-width="0.6"/><path d="M80.0 254.0 h60 v6 h-60 Z M80.0 254.0 l8 -4.8 h60 l-8 4.8 M140.0 254.0 l8 -4.8 v6 l-8 4.8" stroke-width="1.3"/><path d="M141.0 255.0 l6 -3.8 v4 l-6 3.8 Z" fill="url(#p0804-1-shade)" stroke="none"/><path d="M108.0 256.0 v2 M82.0 257.0 h56 M106.0 256.0 h4 M106.0 258.0 h4" stroke-width="0.6"/><path d="M80.0 314.0 h60 v6 h-60 Z M80.0 314.0 l8 -4.8 h60 l-8 4.8 M140.0 314.0 l8 -4.8 v6 l-8 4.8" stroke-width="1.3"/><path d="M141.0 315.0 l6 -3.8 v4 l-6 3.8 Z" fill="url(#p0804-1-shade)" stroke="none"/><path d="M108.0 316.0 v2 M82.0 317.0 h56 M106.0 316.0 h4 M106.0 318.0 h4" stroke-width="0.6"/>
<path d="M137.5 232.0 h80 v18 h-80 Z" stroke-width="1.3"/><path d="M141.5 235.0 h15 v12 h-15 Z" stroke-width="0.7"/><path d="M160.5 235.0 h15 v12 h-15 Z" stroke-width="0.7"/><path d="M179.5 235.0 h15 v12 h-15 Z" stroke-width="0.7"/><path d="M198.5 235.0 h15 v12 h-15 Z" stroke-width="0.7"/><path d="M137.5 232.0 l8 -6 h80 l-8 6" stroke-width="1"/>
<path d="M201.0 180.0 h88 v6 h-88 Z M201.0 180.0 l10 -8 h88 l-10 8" stroke-width="1.2"/><path d="M203.0 181.0 h84 v4 h-84 Z" fill="url(#p0804-1-shade)" stroke="none"/><circle cx="285.0" cy="183.0" r="1.2" stroke-width="0.6"/>
<rect x="266.5" y="112.0" width="34" height="14" rx="4" stroke-width="1.2"/><path d="M272.5 116.0 h6" stroke-width="0.5"/><path d="M308.5 114.0 h50 v10 h-50 Z" stroke-width="1.1"/><path d="M312.5 117.0 v4 h5 v-4 Z" stroke-width="0.5"/><path d="M320.5 117.0 v4 h5 v-4 Z" stroke-width="0.5"/><path d="M328.5 117.0 v4 h5 v-4 Z" stroke-width="0.5"/><path d="M336.5 117.0 v4 h5 v-4 Z" stroke-width="0.5"/><path d="M344.5 117.0 v4 h5 v-4 Z" stroke-width="0.5"/><path d="M352.5 117.0 v4 h5 v-4 Z" stroke-width="0.5"/>
<path d="M340.0 56.0 h40 v10 h-40 Z M344.0 60.0 h4 M350.0 60.0 h4 M356.0 60.0 h4" stroke-width="1"/><path d="M388.0 50.0 h32 v18 h-32 Z M392.0 58.0 h6 M400.0 58.0 h6 M408.0 58.0 h6" stroke-width="1"/><path d="M392.0 64.0 h24" stroke-width="0.5"/>
  </g>
  <g stroke="#3d3d3d" stroke-width="0.7" fill="none" stroke-dasharray="3 3">
<path d="M74.0 252.0 L42.0 246.0"/>
<path d="M133.5 228.0 L101.5 222.0"/>
<path d="M197.0 170.0 L165.0 164.0"/>
<path d="M262.5 108.0 L230.5 102.0"/>
<path d="M336.0 52.0 L304.0 46.0"/>
  </g>
  <text x="16" y="30" font-weight="700" font-size="12" fill="#2a2a2a">三机型材机架 · 爆炸图</text>
  <g font-size="8.5" fill="#444"><text x="16" y="46">1 2020 喷砂黑型材机架 60×40×120，离地 10cm</text><text x="16" y="59">2 四盘位 NAS：2×8TB 镜像 + 2×4TB</text><text x="16" y="72">3 Windows 笔记本（合盖常年在线，自带电池）</text><text x="16" y="85">4 M1 Mac mini（无头）+ 2.5GbE 交换机</text><text x="16" y="98">5 光猫 + 浪涌 PDU + 小 UPS</text></g>
  <text x="464" y="350" text-anchor="end" font-family="'Long Cang','Kaiti SC',cursive" font-size="11" fill="#5a5a5a">0804-1</text>
<g stroke="#3d3d3d" stroke-width="1" fill="#f9f6ef"><circle cx="42.0" cy="246.0" r="7"/></g><text x="42.0" y="249.0" text-anchor="middle" font-size="9" fill="#2a2a2a" font-family="'Noto Sans SC','PingFang SC','Noto Sans CJK SC',sans-serif">1</text>
<g stroke="#3d3d3d" stroke-width="1" fill="#f9f6ef"><circle cx="101.5" cy="222.0" r="7"/></g><text x="101.5" y="225.0" text-anchor="middle" font-size="9" fill="#2a2a2a" font-family="'Noto Sans SC','PingFang SC','Noto Sans CJK SC',sans-serif">2</text>
<g stroke="#3d3d3d" stroke-width="1" fill="#f9f6ef"><circle cx="165.0" cy="164.0" r="7"/></g><text x="165.0" y="167.0" text-anchor="middle" font-size="9" fill="#2a2a2a" font-family="'Noto Sans SC','PingFang SC','Noto Sans CJK SC',sans-serif">3</text>
<g stroke="#3d3d3d" stroke-width="1" fill="#f9f6ef"><circle cx="230.5" cy="102.0" r="7"/></g><text x="230.5" y="105.0" text-anchor="middle" font-size="9" fill="#2a2a2a" font-family="'Noto Sans SC','PingFang SC','Noto Sans CJK SC',sans-serif">4</text>
<g stroke="#3d3d3d" stroke-width="1" fill="#f9f6ef"><circle cx="304.0" cy="46.0" r="7"/></g><text x="304.0" y="49.0" text-anchor="middle" font-size="9" fill="#2a2a2a" font-family="'Noto Sans SC','PingFang SC','Noto Sans CJK SC',sans-serif">5</text>
<text x="16" y="117" font-size="8" fill="#888" font-style="italic">储藏室隔墙背后 · 三面打孔铝板围 · 正面风道</text>
</svg>
