<svg xmlns="http://www.w3.org/2000/svg" viewBox="0 0 400 300" width="400" height="300">
  <defs>
    <filter id="m0307-rough" x="-5%" y="-5%" width="110%" height="110%">
      <feTurbulence type="fractalNoise" baseFrequency="0.04" numOctaves="2" seed="81" result="n"/>
      <feDisplacementMap in="SourceGraphic" in2="n" scale="1.6" xChannelSelector="R" yChannelSelector="G"/>
    </filter>
    <pattern id="m0307-hatch" width="6" height="6" patternUnits="userSpaceOnUse" patternTransform="rotate(45)">
      <line x1="0" y1="0" x2="0" y2="6" stroke="#1c1c1c" stroke-width="0.8"/>
    </pattern>
    <pattern id="m0307-hatch2" width="6" height="6" patternUnits="userSpaceOnUse" patternTransform="rotate(45)">
      <line x1="0" y1="0" x2="0" y2="6" stroke="#1c1c1c" stroke-width="0.8"/>
      <line x1="0" y1="3" x2="6" y2="3" stroke="#1c1c1c" stroke-width="0.6"/>
    </pattern>
    <pattern id="m0307-hatchl" width="9" height="9" patternUnits="userSpaceOnUse" patternTransform="rotate(45)">
      <line x1="0" y1="0" x2="0" y2="9" stroke="#1c1c1c" stroke-width="0.7"/>
    </pattern>
    
  </defs>
  <g filter="url(#m0307-rough)" stroke="#1c1c1c" fill="none" stroke-linecap="round" stroke-linejoin="round">
<path d="M14 246 H386" stroke-width="1.6"/><path d="M386 246 L200 40 L120 40" stroke-width="1.5"/>
<path d="M371 229.5 l-7 0" stroke-width="0.5"/>
<path d="M356 213.0 l-7 0" stroke-width="0.5"/>
<path d="M341 196.5 l-7 0" stroke-width="0.5"/>
<path d="M326 180.0 l-7 0" stroke-width="0.5"/>
<path d="M311 163.5 l-7 0" stroke-width="0.5"/>
<path d="M296 147.0 l-7 0" stroke-width="0.5"/>
<path d="M281 130.5 l-7 0" stroke-width="0.5"/>
<path d="M266 114.0 l-7 0" stroke-width="0.5"/>
<path d="M251 97.5 l-7 0" stroke-width="0.5"/>
<path d="M236 81.0 l-7 0" stroke-width="0.5"/>
<path d="M221 64.5 l-7 0" stroke-width="0.5"/>
<path d="M206 48.0 l-7 0" stroke-width="0.5"/>
<path d="M262 246 V110" stroke-width="0.5" stroke-dasharray="4 3"/>
<path d="M60 246 v-12 h150 v12 M60 234 v-6 h150 v6" stroke-width="1.6"/><path d="M62 236 h146 v8 h-146 Z" fill="url(#m0307-hatch)" stroke="none"/>
<path d="M72 228 V120 h8 V228 M190 228 V120 h8 V228 M72 120 H198 M72 128 H198" stroke-width="1.5"/><path d="M74 130 h122 v-8" stroke-width="0.5"/>
<path d="M60 228 h150" stroke-width="1"/>
<path d="M75 132 V226" stroke-width="0.4"/>
<path d="M193 132 V226" stroke-width="0.4"/>
<path d="M118 112 h30 v24 h-30 Z M126 136 v22 h14 v-22 M129 158 v12 h8 v-12 M133 170 v10" stroke-width="1.2"/><path d="M120 114 h26 v20 h-26 Z" fill="url(#m0307-hatchl)" stroke="none"/>
<path d="M112 228 v-10 h28 v10 M116 218 v-8 h20 v8" stroke-width="1.2"/><circle cx="126" cy="204" r="8" stroke-width="1.2"/><path d="M126 204 l-14 -14 M126 204 l14 -14" stroke-width="0.6" stroke-dasharray="2 2"/>
<path d="M118 196 l8 -12 l12 8 l-8 12 Z" stroke-width="1.1"/><path d="M120 195 l6 -9 l9 6 l-6 9 Z" fill="url(#m0307-hatch)" stroke="none"/>
<path d="M104 200 a10 10 0 0 1 4 -14 M104 200 l-3 -4 M104 200 l4 -2" stroke-width="0.8"/>
<path d="M48 234 V104 H222 V234" stroke-width="0.9" stroke-dasharray="5 3"/><path d="M50 106 h170 v126 h-170 Z" fill="url(#m0307-hatchl)" stroke="none" fill-opacity="0.35"/>
<path d="M150 108 h20 q10 0 14 8 L296 230 M150 104 h20 q12 0 17 8 L300 226" stroke-width="1"/><path d="M296 230 l10 2 l-4 6" stroke-width="0.8"/>
<path d="M190 124.0 l-3 3" stroke-width="0.5"/>
<path d="M206 141.5 l-3 3" stroke-width="0.5"/>
<path d="M222 159.0 l-3 3" stroke-width="0.5"/>
<path d="M238 176.5 l-3 3" stroke-width="0.5"/>
<path d="M254 194.0 l-3 3" stroke-width="0.5"/>
<path d="M270 211.5 l-3 3" stroke-width="0.5"/>
<path d="M84 246 v-14 h50 v14 M90 238 h10 M104 238 h6 M116 236 a2 2 0 1 0 0.1 0" stroke-width="0.9"/>
<path d="M14 246 v-30 h36 v30 M18 220 h28" stroke-width="1"/>
<circle cx="244" cy="207.0" r="5.0" stroke-width="1.2"/><path d="M244 212.0 V230.0 M244 220.0 L235.0 232.0 M244 220.0 L253.0 232.0 M244 230.0 L237.0 246 M244 230.0 L251.0 246" stroke-width="1.2"/>
<path d="M238 216 l-8 -6" stroke-width="0.9"/>
<path d="M330 184 l-26 -28 l14 -6 l24 26 Z" stroke-width="1"/><path d="M328 182 l-22 -24 M318 170 l14 -6" stroke-width="0.5"/>
  </g>
  <text x="386" y="292" text-anchor="end" font-family="'Long Cang','Kaiti SC',cursive" font-size="10" fill="#1c1c1c">0307</text>
<text x="135" y="96" font-family="'Long Cang','Kaiti SC',cursive" font-size="8.5" fill="#5a5a5a" text-anchor="middle" filter="none">铝型材龙门 · 3+2 五轴</text>
<text x="126" y="258" font-family="'Long Cang','Kaiti SC',cursive" font-size="7" fill="#5a5a5a" text-anchor="middle" filter="none">A/C 分度头</text>
<text x="262" y="104" font-family="'Long Cang','Kaiti SC',cursive" font-size="7" fill="#5a5a5a" text-anchor="middle" filter="none">2060</text>
<text x="300" y="120" font-family="'Long Cang','Kaiti SC',cursive" font-size="7" fill="#5a5a5a" text-anchor="middle" filter="none">排屑管 → 0404 集尘</text>
<text x="32" y="258" font-family="'Long Cang','Kaiti SC',cursive" font-size="7" fill="#5a5a5a" text-anchor="middle" filter="none">0301</text>
<text x="346" y="196" font-family="'Long Cang','Kaiti SC',cursive" font-size="7" fill="#5a5a5a" text-anchor="middle" filter="none">天窗</text>
<text x="200" y="282" font-family="'Long Cang','Kaiti SC',cursive" font-size="9.5" fill="#1c1c1c" text-anchor="middle" filter="none">0307：阁楼核心区里一台会翻面的桌面五轴，木屑顺坡顶出去</text>
</svg>
