<svg xmlns="http://www.w3.org/2000/svg" viewBox="0 0 400 300" width="400" height="300">
  <defs>
    <filter id="m0704-rough" x="-5%" y="-5%" width="110%" height="110%">
      <feTurbulence type="fractalNoise" baseFrequency="0.04" numOctaves="2" seed="13" result="n"/>
      <feDisplacementMap in="SourceGraphic" in2="n" scale="1.6" xChannelSelector="R" yChannelSelector="G"/>
    </filter>
    <pattern id="m0704-hatch" width="6" height="6" patternUnits="userSpaceOnUse" patternTransform="rotate(45)">
      <line x1="0" y1="0" x2="0" y2="6" stroke="#1c1c1c" stroke-width="0.8"/>
    </pattern>
    <pattern id="m0704-hatch2" width="6" height="6" patternUnits="userSpaceOnUse" patternTransform="rotate(45)">
      <line x1="0" y1="0" x2="0" y2="6" stroke="#1c1c1c" stroke-width="0.8"/>
      <line x1="0" y1="3" x2="6" y2="3" stroke="#1c1c1c" stroke-width="0.6"/>
    </pattern>
    <pattern id="m0704-hatchl" width="9" height="9" patternUnits="userSpaceOnUse" patternTransform="rotate(45)">
      <line x1="0" y1="0" x2="0" y2="9" stroke="#1c1c1c" stroke-width="0.7"/>
    </pattern>
    
  </defs>
  <g filter="url(#m0704-rough)" stroke="#1c1c1c" fill="none" stroke-linecap="round" stroke-linejoin="round">
<path d="M40 232 Q140 226 250 236 T390 230" stroke-width="1.4"/>
<path d="M20 246 q30 -4 60 0 t60 0 t60 0 t60 0 t60 0" stroke-width="0.7"/>
<path d="M32 258 q30 -4 60 0 t60 0 t60 0 t60 0 t60 0" stroke-width="0.7"/>
<path d="M24 270 q30 -4 60 0 t60 0 t60 0 t60 0 t60 0" stroke-width="0.7"/>
<path d="M36 280 q30 -4 60 0 t60 0 t60 0 t60 0 t60 0" stroke-width="0.7"/>
<path d="M14 60 q60 -10 120 0 M250 58 q40 -8 80 0" stroke-width="0.6" stroke-dasharray="3 3"/>
<path d="M14 120 L60 122 L130 200 L200 214" stroke-width="1.6"/><path d="M14 138 L58 140 L120 208" stroke-width="0.9"/>
<path d="M14 122 L60 124 L130 202 L124 212 L58 142 L14 140 Z" fill="url(#m0704-hatchl)" stroke="none"/>
<path d="M66 130 l10 2 l0 6 l-10 -2 Z" stroke-width="0.9"/>
<path d="M82 148 l10 2 l0 6 l-10 -2 Z" stroke-width="0.9"/>
<path d="M98 166 l10 2 l0 6 l-10 -2 Z" stroke-width="0.9"/>
<path d="M114 184 l10 2 l0 6 l-10 -2 Z" stroke-width="0.9"/>
<path d="M62 112 L128 186" stroke-width="1.2"/><path d="M66 128 v-14 M92 156 v-14 M118 184 v-14" stroke-width="0.9"/>
<path d="M14 104 h30 v14 h-30 Z" stroke-width="1"/><path d="M16 106 h26 v10 h-26 Z" fill="url(#m0704-hatch)" stroke="none"/>
<path d="M150 214 L300 214 L340 190 L190 190 Z" stroke-width="1.8"/><path d="M150 214 v12 h150 v-12 M300 226 l40 -24 v-12" stroke-width="1.3"/>
<path d="M300 214 l40 -24 v12 l-40 24 Z" fill="url(#m0704-hatch)" stroke="none"/>
<path d="M167 214 l40 -24" stroke-width="0.5"/>
<path d="M184 214 l40 -24" stroke-width="0.5"/>
<path d="M201 214 l40 -24" stroke-width="0.5"/>
<path d="M218 214 l40 -24" stroke-width="0.5"/>
<path d="M235 214 l40 -24" stroke-width="0.5"/>
<path d="M252 214 l40 -24" stroke-width="0.5"/>
<path d="M269 214 l40 -24" stroke-width="0.5"/>
<path d="M286 214 l40 -24" stroke-width="0.5"/>
<path d="M160 226 v8 h10 v-8 M280 226 v8 h10 v-8 M322 202 v8 h8 v-8" stroke-width="0.9"/>
<path d="M300 212 l40 -24 M300 209 l40 -24" stroke-width="0.9"/>
<path d="M212 206 h16 v-14 h-16 Z M212 192 v-16 h16 v16 M214 206 v8 M226 206 v8" stroke-width="1.1"/>
<path d="M262 208 v-12 M262 196 L370 150" stroke-width="1"/><path d="M370 150 L376 232" stroke-width="0.5" stroke-dasharray="2 3"/>
<path d="M258 196 l8 0 M262 196 l-3 -4 M262 196 l3 -4" stroke-width="0.8"/>
<path d="M240 204 h18 l6 -4 h-18 Z M240 204 v8 M258 204 v8 M264 200 v8" stroke-width="0.9"/>
<path d="M232 202 a12 5 0 1 0 24 0 a12 5 0 1 0 -24 0" stroke-width="1.3"/><path d="M236 200 q4 -14 8 -4 q4 -12 6 0 q2 -8 4 2" stroke-width="0.9"/>
<path d="M238 196 q2 -30 12 -40 M248 194 q0 -20 8 -30" stroke-width="0.5" stroke-dasharray="2 3"/>
<path d="M270 208 h16 l6 -4 h-16 Z M270 208 v6 M286 208 v6" stroke-width="0.9"/><path d="M276 204 a3 2 0 1 0 6 0 a3 2 0 1 0 -6 0 M282 203 l3 -2" stroke-width="0.8"/>
<path d="M196 208 a8 3 0 1 0 16 0 a8 3 0 1 0 -16 0" stroke-width="1"/>
<circle cx="204" cy="182.6" r="3.0" stroke-width="1.2"/><path d="M204 185.6 V196.4 M204 190.4 L198.6 197.6 M204 190.4 L209.4 197.6 M204 196.4 L199.8 206 M204 196.4 L208.2 206" stroke-width="1.2"/>
<path d="M120 216 l2 -8 l2 8 M136 224 l2 -9 M360 226 l2 -8 l2 8 M376 224 l2 -7 M30 226 l3 -10 l3 10" stroke-width="0.9"/>
  </g>
  <text x="386" y="292" text-anchor="end" font-family="'Long Cang','Kaiti SC',cursive" font-size="10" fill="#1c1c1c">0704</text>
<text x="14" y="98" font-family="'Long Cang','Kaiti SC',cursive" font-size="8" fill="#5a5a5a" text-anchor="start" filter="none">庭院 → 2m 过道</text>
<text x="40" y="186" font-family="'Long Cang','Kaiti SC',cursive" font-size="8" fill="#5a5a5a" text-anchor="start" filter="none">6m 缓坡</text>
<text x="300" y="176" font-family="'Long Cang','Kaiti SC',cursive" font-size="8" fill="#5a5a5a" text-anchor="middle" filter="none">钓台 ≈2.5×2.2</text>
<text x="330" y="262" font-family="'Long Cang','Kaiti SC',cursive" font-size="9" fill="#5a5a5a" text-anchor="middle" filter="none">河 · 宽 10m</text>
<text x="200" y="290" font-family="'Long Cang','Kaiti SC',cursive" font-size="9.5" fill="#1c1c1c" text-anchor="middle" filter="none">0704 · 台面嵌一只铁盆火塘，一张矮桌，一只蒲团</text>
</svg>
